<?xml version="1.0" encoding="utf-8"?>
<!-- Generator: Adobe Illustrator 24.0.0, SVG Export Plug-In . SVG Version: 6.00 Build 0)  -->
<svg version="1.1" id="Capa_1" xmlns="http://www.w3.org/2000/svg" xmlns:xlink="http://www.w3.org/1999/xlink" x="0px" y="0px"
	 viewBox="0 0 600 600" style="enable-background:new 0 0 600 600;" xml:space="preserve">
<style type="text/css">
	.st0{fill:#FFFFFF;}
</style>
<g>
	<path class="st0" d="M300.5,58.2c78.9,0,88.2,0.3,119.4,1.7c28.8,1.3,44.5,6.1,54.9,10.2c13.8,5.4,23.6,11.8,34,22.1
		c10.3,10.3,16.7,20.2,22.1,34c4,10.4,8.9,26.1,10.2,54.9c1.4,31.2,1.7,40.5,1.7,119.4s-0.3,88.2-1.7,119.4
		c-1.3,28.8-6.1,44.5-10.2,54.9c-5.4,13.8-11.8,23.6-22.1,34c-10.3,10.3-20.2,16.7-34,22.1c-10.4,4-26.1,8.9-54.9,10.2
		c-31.2,1.4-40.5,1.7-119.4,1.7s-88.3-0.3-119.4-1.7c-28.8-1.3-44.5-6.1-54.9-10.2c-13.8-5.4-23.6-11.8-34-22.1
		c-10.3-10.3-16.7-20.2-22.1-34c-4-10.4-8.9-26.1-10.2-54.9c-1.4-31.2-1.7-40.5-1.7-119.4s0.3-88.2,1.7-119.4
		c1.3-28.8,6.1-44.5,10.2-54.9c5.4-13.8,11.8-23.6,22.1-34c10.3-10.3,20.2-16.7,34-22.1c10.4-4,26.1-8.9,54.9-10.2
		C212.3,58.5,221.6,58.2,300.5,58.2 M300.5,5c-80.3,0-90.3,0.3-121.8,1.8c-31.5,1.4-52.9,6.4-71.7,13.7C87.5,28.1,71,38.2,54.6,54.6
		C38.2,71,28.1,87.5,20.5,106.9c-7.3,18.8-12.3,40.3-13.7,71.7C5.3,210.2,5,220.2,5,300.5c0,80.3,0.3,90.3,1.8,121.8
		c1.4,31.5,6.4,52.9,13.7,71.7c7.6,19.4,17.7,35.9,34.1,52.3c16.4,16.4,32.9,26.5,52.3,34.1c18.8,7.3,40.3,12.3,71.7,13.7
		c31.5,1.4,41.6,1.8,121.8,1.8s90.3-0.3,121.8-1.8c31.5-1.4,52.9-6.4,71.7-13.7c19.4-7.6,35.9-17.7,52.3-34.1
		c16.4-16.4,26.5-32.9,34.1-52.3c7.3-18.8,12.3-40.3,13.7-71.7c1.4-31.5,1.8-41.6,1.8-121.8s-0.3-90.3-1.8-121.8
		c-1.4-31.5-6.4-52.9-13.7-71.7c-7.6-19.4-17.7-35.9-34.1-52.3c-16.4-16.4-32.9-26.5-52.3-34.1c-18.8-7.3-40.3-12.3-71.7-13.7
		C390.8,5.3,380.8,5,300.5,5L300.5,5z"/>
	<path class="st0" d="M300.5,148.8c-83.8,0-151.7,67.9-151.7,151.7s67.9,151.7,151.7,151.7s151.7-67.9,151.7-151.7
		S384.3,148.8,300.5,148.8z M300.5,399c-54.4,0-98.5-44.1-98.5-98.5s44.1-98.5,98.5-98.5c54.4,0,98.5,44.1,98.5,98.5
		S354.9,399,300.5,399z"/>
	<circle class="st0" cx="458.2" cy="142.8" r="35.5"/>
</g>
</svg>
