<?xml version="1.0" encoding="utf-8"?>
<!-- Generator: Adobe Illustrator 24.0.0, SVG Export Plug-In . SVG Version: 6.00 Build 0)  -->
<svg version="1.1" id="Capa_1" xmlns="http://www.w3.org/2000/svg" xmlns:xlink="http://www.w3.org/1999/xlink" x="0px" y="0px"
	 viewBox="0 0 523 176" style="enable-background:new 0 0 523 176;" xml:space="preserve">
<style type="text/css">
	.st0{fill:#FFFFFF;}
	.st1{fill-rule:evenodd;clip-rule:evenodd;fill:#FFFFFF;}
</style>
<g>
	<g>
		<g>
			<path class="st0" d="M94.8,75.7c-4.8-4.1-13.5-7.6-26-10.3c0,0-10.7-1.6-19-1.7c-1.5,0.1-3,0.2-4.6,0.2V12.8V2.5H13.5
				c-2.5,0-5,0-7.6,0c-2.7,0-4.1,0.6-4.1,1.6c0,1,2.2,1.5,6.6,1.6C14.1,6,17,7.9,17,11.7v110.9c0,4.8-0.5,7.8-1.5,9
				c-1,1.2-3.5,1.8-7.5,1.8c-4,0-6,0.6-6,1.7c0,0.8,0.4,1.2,1.1,1.4c0.7,0.1,3.1,0.2,7.1,0.2c28.4,0,45.5-0.1,51.3-0.4
				c5.8-0.3,12-1.2,18.6-2.7c8.3-1.9,14.8-5.8,19.5-11.5c4.7-5.8,7.1-12.6,7.1-20.7C106.7,91.1,102.7,82.6,94.8,75.7z M54,133
				c-4.6,0-7.4-0.7-8.4-2.1c-0.7-0.9-1.1-8.3-1.1-22.3c0-8.1,0.1-13.7,0.2-16.6c0.2-5.9,0.4-10.5,0.4-13.7V67c7.4,0,13,0.6,16.9,1.7
				c9.9,3,14.9,13.6,14.9,31.7C76.9,122.2,69.3,133,54,133z"/>
			<path class="st0" d="M91.3,21c-2.1-4.1-4.8-7.6-8.3-10.7c-4.8-4.1-10.6-6.9-16.9-7.4C63,2.7,52.6,2.4,51.4,6.7
				c-0.5,1.9,1.9,2,3.1,2.1c6.5,0.2,12.1,0.4,17.7,4.4c3.7,2.6,6.4,5.9,8.1,10c-3.9,0.2-7.5,1.6-10.8,4.1c-3.2,2.6-4.9,6.2-4.9,10.8
				c0,3.9,1.4,7.3,4.1,10.1c2.7,2.8,6,4.3,9.7,4.3c4.4,0,8.2-1.9,11.3-5.7c3.1-3.8,4.6-8,4.6-12.7C94.4,29.4,93.4,25.1,91.3,21z"/>
		</g>
		<g>
			<path class="st0" d="M216.7,128.9v6.6H184v-12.3c-0.1,0.2-0.3,0.4-0.4,0.6c-1.6,2.6-3.6,5-5.9,7.1c-2.4,2.1-5.1,3.8-8.2,5.1
				c-3.2,1.4-6.9,2-11,2c-5,0-9.1-0.6-12.3-1.7c-3.2-1.1-5.6-2.3-7.4-3.6c-0.9-0.6-1.9-1.4-2.9-2.4c-1.2-1-2.3-2.5-3.2-4.2
				c-0.9-1.7-1.7-3.8-2.3-6.4c-0.6-2.6-0.9-5.7-0.9-9.5V61.7h-13.7v-6.6h33.1v56.6c0,3,0.2,5.7,0.6,8.2c0.4,2.3,1.1,4.4,2.1,6.1
				c1,1.6,2.3,3,3.9,3.9c1.6,0.9,3.7,1.4,6.4,1.4c2.3,0,4.6-0.7,7.1-2.1c2.6-1.4,4.9-3.4,7.1-6.1c2.2-2.7,4-5.9,5.5-9.7
				c1.4-3.7,2.2-8,2.2-12.7V61.7h-13.5v-6.6H203v73.8H216.7z"/>
			<polygon class="st0" points="268.6,128.9 268.6,135.5 221.9,135.5 221.9,128.9 235.5,128.9 235.5,61.7 221.9,61.7 221.9,55.1 
				254.9,55.1 254.9,128.9 			"/>
			<path class="st0" d="M334.1,118.1l-0.4,1.8c-0.4,1.6-0.9,3.4-1.7,5.4c-0.8,2.1-2,4.1-3.6,6.1c-1.7,1.9-3.9,3.5-6.5,4.8
				c-2.6,1.3-5.9,1.9-9.8,1.9c-9.6,0-16.1-1.9-20-5.7c-3.9-3.8-5.9-9.2-5.9-16.1V61.7h-13.7v-6.6h13.7V31.3l2.8,1.1
				c0.9,0.3,1.7,0.6,2.5,0.8c0.4,0.1,1.3,0.3,3.7,0.3c1.6,0,2.9-0.2,4-0.5c1.1-0.3,2.1-0.9,3.1-1.7l3.3-2.7v26.6h25.3v6.6h-25.3
				v56.1c0,3.1,0.3,5.6,0.9,7.5c0.6,1.8,1.3,3.1,2.1,4c0.8,0.9,1.7,1.4,2.5,1.7c1.1,0.3,2.1,0.5,3.1,0.5c3.5,0,6.3-1.2,8.5-3.8
				c2.3-2.7,3.8-5.9,4.4-9.4l0.4-2.4L334.1,118.1z"/>
		</g>
		<path class="st1" d="M234.2,31.2c7.2-1.9,12.4-6.1,15.2-13.2c-5.3,6.6-11,10.1-17,11.5c-4.5-22.8,21.4-13.9,25-28.6
			C260,21.2,248.1,34.4,234.2,31.2L234.2,31.2z"/>
		<g>
			<path class="st0" d="M378.3,60.5l-6.2,38.3c-4.7,29.8-9.9,49.9-15.4,60.5c-5.5,10.5-13,15.8-22.5,15.8c-4.2,0-7.6-1.2-10.1-3.6
				c-2.5-2.4-3.8-5.7-3.8-9.7c0-2.6,0.5-4.7,1.6-6.1c1.1-1.4,2.6-2.1,4.5-2.1c1.6,0,2.9,0.6,4,1.9c1.1,1.3,1.6,2.9,1.6,4.8
				c0,1.5-0.2,3.1-0.5,4.5c-0.3,1.5-0.9,2.9-1.5,4.1c0.6,0.6,1.2,1,1.8,1.2c0.6,0.3,1.2,0.4,1.8,0.4c5.2,0,9.5-3.7,12.7-11.1
				c3.2-7.4,6.5-22.1,10-44.1l8.6-54.7h-16.7v-4.7h17.4c2.6-16.7,6.8-29.2,12.8-37.5c6-8.3,13.6-12.5,23-12.5c5.7,0,10.4,1.5,14,4.5
				c3.6,3,5.4,6.8,5.4,11.5c0,2.6-0.5,4.6-1.6,5.9c-1.1,1.4-2.6,2.1-4.5,2.1c-1.7,0-3-0.6-4.2-1.9c-1.1-1.3-1.7-2.9-1.7-4.8
				c0-1.5,0.2-3,0.6-4.5c0.4-1.5,0.9-2.9,1.6-4.4c-1.1-1.1-2.4-2-3.9-2.7c-1.4-0.6-2.9-0.9-4.5-0.9c-6.3,0-11.2,3.3-14.7,9.9
				c-3.5,6.6-6.5,18.3-8.9,35.1h18.9v4.7H378.3z"/>
			<path class="st0" d="M403.6,74.8l-4-1.9c3.3-7.2,7.2-12.8,11.8-16.6c4.6-3.8,9.6-5.7,15-5.7c3.4,0,6.1,0.9,8.2,2.7
				c2,1.8,3,4.2,3,7.2c0,2.3-0.7,6.1-2.2,11.3l-0.1,0.3l-10.5,35.9c-1,3.5-1.8,6.6-2.3,9.2c-0.5,2.6-0.8,4.7-0.8,6.2
				c0,2.4,0.4,4.1,1.2,5.1c0.8,1,2.1,1.5,4,1.5c2.7,0,5.3-1.3,7.8-3.8c2.5-2.5,5.5-6.9,9-13.1l3.7,1.9c-3.7,7.8-7.6,13.5-11.9,17.1
				c-4.3,3.7-9,5.5-14.3,5.5c-4.3,0-7.6-1.1-10.1-3.4c-2.4-2.3-3.6-5.4-3.6-9.4c0-2.1,0.7-5.5,2.1-10.4l0.3-0.9l11-37.6
				c0.9-2.6,1.5-4.9,1.8-6.8c0.3-1.9,0.5-3.7,0.5-5.4c0-1.8-0.4-3.1-1.1-4.1c-0.7-1-1.8-1.5-3.1-1.5c-2.2,0-4.6,1.4-7.2,4.2
				C409.1,65.5,406.4,69.5,403.6,74.8z M433,35.2c-2.3,0-4.1-0.6-5.5-1.8c-1.4-1.2-2.1-2.9-2.1-4.9c0-2.8,0.8-5.1,2.5-6.8
				c1.7-1.7,3.8-2.6,6.4-2.6c2.2,0,3.9,0.6,5.1,1.8c1.2,1.2,1.8,2.9,1.8,5.1c0,2.9-0.7,5.1-2.2,6.8C437.6,34.4,435.6,35.2,433,35.2z
				"/>
			<path class="st0" d="M469.5,61.4h-13.2v-5h14.2l6.3-28.6h12.2l-5.7,28.6h20.5v5h-21.6l-10.4,50.8c-0.5,2.3-0.8,4.3-1,5.9
				c-0.2,1.6-0.3,3-0.3,4.1c0,2.6,0.6,4.7,1.8,6.3c1.2,1.6,2.8,2.4,4.8,2.4c3.3,0,6.6-1.8,10-5.3c3.4-3.5,6.7-8.7,9.9-15.5l3,1.9
				c-3.3,8.4-7.3,14.8-12.1,19.1c-4.7,4.3-10.1,6.5-16,6.5c-4.9,0-8.6-1.3-11.2-3.9c-2.6-2.6-3.9-6.4-3.9-11.4
				c0-1.9,0.1-3.7,0.3-5.3c0.2-1.6,0.5-3.1,0.9-4.5L469.5,61.4z"/>
		</g>
	</g>
	<g>
		<path class="st0" d="M514.1,117.7c4.4,0,8.1,3.6,8.1,8.1c0,4.5-3.6,8.1-8.1,8.1c-4.5,0-8.1-3.6-8.1-8.1
			C506,121.3,509.6,117.7,514.1,117.7z M514.1,132.4c3.7,0,6.6-3,6.6-6.7c0-3.7-3-6.6-6.6-6.6c-3.7,0-6.7,3-6.7,6.6
			C507.4,129.4,510.4,132.4,514.1,132.4z M511.4,130v-8.6h3.4c1.9,0,2.6,1.3,2.6,2.7c0,1-0.4,2.2-1.8,2.5l1.8,3.5h-1.5l-1.8-3.3
			h-1.4v3.3H511.4z M512.8,122.6v2.8h2c0.9,0,1.2-0.7,1.2-1.4c0-0.8-0.3-1.4-1.2-1.4H512.8z"/>
	</g>
	<g>
		<g>
			<path class="st0" d="M8.4,167.2c-1.1-0.7-2-1.6-2.7-2.7s-1-2.5-1-3.9c0-1.5,0.3-2.8,0.9-3.9c0.6-1.2,1.5-2.1,2.6-2.7
				c1.1-0.7,2.3-1,3.7-1c2.3,0,4.1,0.9,5.6,2.6c0.1,0.2,0.2,0.4,0.2,0.6c0,0.3-0.2,0.5-0.5,0.8c-0.2,0.1-0.3,0.2-0.5,0.2
				c-0.3,0-0.5-0.1-0.8-0.4c-0.5-0.6-1.2-1.1-1.8-1.4c-0.7-0.3-1.4-0.5-2.2-0.5c-1,0-1.9,0.2-2.7,0.7c-0.8,0.5-1.4,1.2-1.8,2
				c-0.4,0.9-0.6,1.9-0.6,3c0,1.1,0.2,2.1,0.7,2.9c0.5,0.9,1.1,1.5,1.9,2c0.8,0.5,1.8,0.7,2.8,0.7c1.5,0,2.6-0.4,3.5-1.2
				c0.2-0.2,0.5-0.3,0.7-0.3c0.2,0,0.4,0.1,0.6,0.2c0.3,0.2,0.4,0.5,0.4,0.7c0,0.2-0.1,0.4-0.3,0.6c-1.3,1.2-3,1.8-5,1.8
				C10.8,168.2,9.5,167.9,8.4,167.2z"/>
			<path class="st0" d="M24.4,167.2c-1.2-0.7-2.1-1.6-2.7-2.7c-0.7-1.2-1-2.5-1-3.9c0-1.4,0.3-2.8,1-3.9c0.7-1.2,1.6-2.1,2.7-2.7
				c1.2-0.7,2.5-1,3.9-1s2.7,0.3,3.9,1c1.2,0.7,2.1,1.6,2.7,2.7c0.7,1.2,1,2.5,1,3.9c0,1.4-0.3,2.7-1,3.9c-0.7,1.2-1.6,2.1-2.7,2.7
				c-1.2,0.7-2.5,1-3.9,1S25.6,167.9,24.4,167.2z M31.2,165.5c0.8-0.5,1.5-1.2,2-2c0.5-0.9,0.7-1.8,0.7-2.9c0-1.1-0.2-2.1-0.7-2.9
				c-0.5-0.9-1.1-1.5-2-2c-0.8-0.5-1.8-0.7-2.9-0.7c-1,0-2,0.2-2.8,0.7c-0.9,0.5-1.5,1.2-2,2c-0.5,0.9-0.7,1.9-0.7,2.9
				c0,1.1,0.2,2.1,0.7,2.9c0.5,0.9,1.2,1.5,2,2c0.8,0.5,1.8,0.7,2.8,0.7C29.4,166.3,30.4,166,31.2,165.5z"/>
			<path class="st0" d="M50.3,153.7c1,0.5,1.8,1.3,2.4,2.4c0.6,1.1,0.9,2.3,0.9,3.8v7.1c0,0.3-0.1,0.5-0.3,0.7
				c-0.2,0.2-0.4,0.3-0.7,0.3c-0.3,0-0.6-0.1-0.8-0.3c-0.2-0.2-0.3-0.4-0.3-0.7v-7.1c0-1.6-0.5-2.9-1.4-3.7
				c-0.9-0.8-2.1-1.3-3.6-1.3c-0.9,0-1.7,0.2-2.4,0.5c-0.7,0.3-1.3,0.8-1.7,1.4c-0.4,0.6-0.6,1.3-0.6,2v8.1c0,0.3-0.1,0.6-0.3,0.8
				c-0.2,0.2-0.4,0.3-0.8,0.3c-0.3,0-0.6-0.1-0.8-0.3c-0.2-0.2-0.3-0.4-0.3-0.8v-12.9c0-0.3,0.1-0.6,0.3-0.8
				c0.2-0.2,0.5-0.3,0.8-0.3c0.3,0,0.6,0.1,0.8,0.3c0.2,0.2,0.3,0.5,0.3,0.8v0.9c0.6-0.7,1.3-1.2,2.2-1.6c0.9-0.4,1.8-0.6,2.8-0.6
				C48.1,152.9,49.3,153.2,50.3,153.7z"/>
			<path class="st0" d="M59.9,167.6c-1-0.4-1.9-0.9-2.5-1.6c-0.2-0.2-0.3-0.4-0.3-0.6c0-0.3,0.1-0.6,0.4-0.8
				c0.2-0.2,0.4-0.2,0.7-0.2c0.3,0,0.6,0.1,0.8,0.4c0.4,0.5,1,0.9,1.7,1.2c0.7,0.3,1.5,0.4,2.4,0.4c1.3,0,2.2-0.2,2.9-0.7
				c0.6-0.4,1-1,1-1.7c0-0.7-0.3-1.2-1-1.6c-0.6-0.4-1.7-0.8-3-1c-1.8-0.3-3.1-0.8-4-1.5c-0.9-0.7-1.3-1.6-1.3-2.6
				c0-1.3,0.5-2.4,1.5-3.1c1-0.7,2.3-1.1,3.9-1.1c1.2,0,2.3,0.2,3.2,0.6c0.9,0.4,1.6,1,2.2,1.7c0.1,0.2,0.2,0.4,0.2,0.6
				c0,0.3-0.1,0.6-0.4,0.7c-0.1,0.1-0.3,0.1-0.5,0.1c-0.4,0-0.7-0.1-1-0.4c-0.9-1-2.1-1.5-3.7-1.5c-1,0-1.8,0.2-2.4,0.6
				c-0.6,0.4-0.9,0.9-0.9,1.5c0,0.7,0.3,1.2,0.9,1.6c0.6,0.4,1.6,0.7,3,0.9c2,0.3,3.4,0.9,4.2,1.6c0.8,0.7,1.3,1.7,1.3,2.8
				c0,0.8-0.3,1.6-0.8,2.2c-0.5,0.7-1.2,1.2-2.1,1.5c-0.9,0.4-1.9,0.5-3,0.5C62,168.2,60.9,168,59.9,167.6z"/>
			<path class="st0" d="M75.1,167.2c-1.1-0.7-2-1.6-2.7-2.7c-0.6-1.2-1-2.5-1-3.9c0-1.5,0.3-2.8,0.9-3.9c0.6-1.2,1.5-2.1,2.6-2.7
				c1.1-0.7,2.3-1,3.7-1c2.3,0,4.1,0.9,5.6,2.6c0.1,0.2,0.2,0.4,0.2,0.6c0,0.3-0.2,0.5-0.5,0.8c-0.2,0.1-0.3,0.2-0.5,0.2
				c-0.3,0-0.5-0.1-0.8-0.4c-0.5-0.6-1.2-1.1-1.8-1.4c-0.7-0.3-1.4-0.5-2.2-0.5c-1,0-1.9,0.2-2.7,0.7c-0.8,0.5-1.4,1.2-1.8,2
				c-0.4,0.9-0.6,1.9-0.6,3c0,1.1,0.2,2.1,0.7,2.9s1.1,1.5,1.9,2c0.8,0.5,1.8,0.7,2.8,0.7c1.5,0,2.6-0.4,3.5-1.2
				c0.2-0.2,0.5-0.3,0.7-0.3c0.2,0,0.4,0.1,0.6,0.2c0.3,0.2,0.4,0.5,0.4,0.7c0,0.2-0.1,0.4-0.3,0.6c-1.3,1.2-3,1.8-5,1.8
				C77.6,168.2,76.3,167.9,75.1,167.2z"/>
			<path class="st0" d="M88.7,149.8c-0.3-0.3-0.4-0.6-0.4-1.1c0-0.4,0.1-0.8,0.4-1.1c0.3-0.3,0.6-0.4,1.1-0.4c0.4,0,0.7,0.1,1,0.4
				c0.3,0.3,0.4,0.6,0.4,1.1c0,0.4-0.1,0.8-0.4,1.1c-0.3,0.3-0.6,0.4-1.1,0.4S89,150.1,88.7,149.8z M89,167.8
				c-0.2-0.2-0.3-0.5-0.3-0.8v-12.9c0-0.3,0.1-0.6,0.3-0.8c0.2-0.2,0.5-0.3,0.8-0.3c0.3,0,0.6,0.1,0.8,0.3c0.2,0.2,0.3,0.5,0.3,0.8
				V167c0,0.3-0.1,0.6-0.3,0.8c-0.2,0.2-0.4,0.3-0.8,0.3C89.4,168.1,89.2,168,89,167.8z"/>
			<path class="st0" d="M105.8,153.9c1,0.6,1.9,1.5,2.4,2.6c0.6,1.1,0.9,2.4,0.9,3.8c0,0.3-0.1,0.5-0.3,0.7
				c-0.2,0.2-0.4,0.3-0.7,0.3H97c0.1,1.5,0.7,2.7,1.8,3.6c1,0.9,2.3,1.4,3.8,1.4c0.7,0,1.3-0.1,2-0.3c0.7-0.2,1.2-0.5,1.6-0.9
				c0.2-0.2,0.5-0.3,0.7-0.3c0.2,0,0.4,0.1,0.6,0.2c0.2,0.2,0.4,0.5,0.4,0.7c0,0.2-0.1,0.4-0.3,0.6c-0.6,0.5-1.4,0.9-2.3,1.3
				c-0.9,0.3-1.8,0.5-2.7,0.5c-1.5,0-2.8-0.3-3.9-1c-1.2-0.6-2.1-1.6-2.7-2.7c-0.6-1.2-1-2.5-1-3.9c0-1.5,0.3-2.8,0.9-4
				s1.5-2.1,2.6-2.7c1.1-0.6,2.3-1,3.7-1C103.5,152.9,104.7,153.2,105.8,153.9z M98.7,156.1c-0.9,0.9-1.5,2-1.7,3.4h10
				c-0.1-1.4-0.7-2.5-1.5-3.4c-0.9-0.9-2-1.3-3.4-1.3C100.8,154.8,99.6,155.2,98.7,156.1z"/>
			<path class="st0" d="M122.9,153.7c1,0.5,1.8,1.3,2.4,2.4c0.6,1.1,0.9,2.3,0.9,3.8v7.1c0,0.3-0.1,0.5-0.3,0.7
				c-0.2,0.2-0.4,0.3-0.7,0.3c-0.3,0-0.6-0.1-0.8-0.3c-0.2-0.2-0.3-0.4-0.3-0.7v-7.1c0-1.6-0.5-2.9-1.4-3.7
				c-0.9-0.8-2.1-1.3-3.6-1.3c-0.9,0-1.7,0.2-2.4,0.5c-0.7,0.3-1.3,0.8-1.7,1.4c-0.4,0.6-0.6,1.3-0.6,2v8.1c0,0.3-0.1,0.6-0.3,0.8
				c-0.2,0.2-0.4,0.3-0.8,0.3s-0.6-0.1-0.8-0.3c-0.2-0.2-0.3-0.4-0.3-0.8v-12.9c0-0.3,0.1-0.6,0.3-0.8c0.2-0.2,0.5-0.3,0.8-0.3
				s0.6,0.1,0.8,0.3c0.2,0.2,0.3,0.5,0.3,0.8v0.9c0.6-0.7,1.3-1.2,2.2-1.6c0.9-0.4,1.8-0.6,2.8-0.6
				C120.7,152.9,121.8,153.2,122.9,153.7z"/>
			<path class="st0" d="M133.3,167.2c-1.1-0.7-2-1.6-2.7-2.7s-1-2.5-1-3.9c0-1.5,0.3-2.8,0.9-3.9c0.6-1.2,1.5-2.1,2.6-2.7
				c1.1-0.7,2.3-1,3.7-1c2.3,0,4.1,0.9,5.6,2.6c0.1,0.2,0.2,0.4,0.2,0.6c0,0.3-0.2,0.5-0.5,0.8c-0.2,0.1-0.3,0.2-0.5,0.2
				c-0.3,0-0.5-0.1-0.8-0.4c-0.5-0.6-1.2-1.1-1.8-1.4c-0.7-0.3-1.4-0.5-2.2-0.5c-1,0-1.9,0.2-2.7,0.7c-0.8,0.5-1.4,1.2-1.8,2
				c-0.4,0.9-0.6,1.9-0.6,3c0,1.1,0.2,2.1,0.7,2.9c0.5,0.9,1.1,1.5,1.9,2c0.8,0.5,1.8,0.7,2.8,0.7c1.5,0,2.6-0.4,3.5-1.2
				c0.2-0.2,0.5-0.3,0.7-0.3c0.2,0,0.4,0.1,0.6,0.2c0.3,0.2,0.4,0.5,0.4,0.7c0,0.2-0.1,0.4-0.3,0.6c-1.3,1.2-3,1.8-5,1.8
				C135.7,168.2,134.4,167.9,133.3,167.2z"/>
			<path class="st0" d="M146.8,149.8c-0.3-0.3-0.4-0.6-0.4-1.1c0-0.4,0.1-0.8,0.4-1.1c0.3-0.3,0.6-0.4,1.1-0.4c0.4,0,0.7,0.1,1,0.4
				c0.3,0.3,0.4,0.6,0.4,1.1c0,0.4-0.1,0.8-0.4,1.1c-0.3,0.3-0.6,0.4-1.1,0.4C147.5,150.2,147.1,150.1,146.8,149.8z M147.1,167.8
				c-0.2-0.2-0.3-0.5-0.3-0.8v-12.9c0-0.3,0.1-0.6,0.3-0.8c0.2-0.2,0.5-0.3,0.8-0.3c0.3,0,0.6,0.1,0.8,0.3c0.2,0.2,0.3,0.5,0.3,0.8
				V167c0,0.3-0.1,0.6-0.3,0.8c-0.2,0.2-0.4,0.3-0.8,0.3C147.6,168.1,147.3,168,147.1,167.8z"/>
			<path class="st0" d="M164.7,153.9c1.2,0.7,2.1,1.6,2.7,2.8c0.7,1.2,1,2.5,1,3.9v6.4c0,0.3-0.1,0.5-0.3,0.7
				c-0.2,0.2-0.5,0.3-0.8,0.3s-0.6-0.1-0.8-0.3c-0.2-0.2-0.3-0.4-0.3-0.8v-1.6c-0.6,0.9-1.5,1.6-2.4,2.1c-1,0.5-2.1,0.8-3.3,0.8
				c-1.4,0-2.6-0.3-3.8-1c-1.1-0.7-2-1.6-2.7-2.7c-0.6-1.2-1-2.5-1-3.9s0.3-2.7,1-3.9c0.7-1.2,1.6-2.1,2.7-2.8c1.2-0.7,2.5-1,3.9-1
				S163.5,153.3,164.7,153.9z M163.6,165.5c0.8-0.5,1.5-1.2,2-2c0.5-0.9,0.7-1.8,0.7-2.9c0-1.1-0.2-2.1-0.7-2.9
				c-0.5-0.9-1.1-1.6-2-2.1c-0.8-0.5-1.8-0.8-2.8-0.8c-1,0-2,0.3-2.8,0.8c-0.8,0.5-1.5,1.2-2,2.1c-0.5,0.9-0.7,1.8-0.7,2.9
				c0,1.1,0.2,2.1,0.7,2.9c0.5,0.9,1.2,1.5,2,2c0.8,0.5,1.8,0.7,2.8,0.7C161.8,166.3,162.8,166,163.6,165.5z"/>
			<path class="st0" d="M181.8,167.6c-1-0.4-1.9-0.9-2.5-1.6c-0.2-0.2-0.3-0.4-0.3-0.6c0-0.3,0.1-0.6,0.4-0.8
				c0.2-0.2,0.4-0.2,0.7-0.2c0.3,0,0.6,0.1,0.8,0.4c0.4,0.5,1,0.9,1.7,1.2c0.7,0.3,1.5,0.4,2.4,0.4c1.3,0,2.2-0.2,2.9-0.7
				c0.6-0.4,1-1,1-1.7c0-0.7-0.3-1.2-1-1.6c-0.6-0.4-1.7-0.8-3-1c-1.8-0.3-3.1-0.8-4-1.5c-0.9-0.7-1.3-1.6-1.3-2.6
				c0-1.3,0.5-2.4,1.5-3.1c1-0.7,2.3-1.1,3.9-1.1c1.2,0,2.3,0.2,3.2,0.6c0.9,0.4,1.6,1,2.2,1.7c0.1,0.2,0.2,0.4,0.2,0.6
				c0,0.3-0.1,0.6-0.4,0.7c-0.1,0.1-0.3,0.1-0.5,0.1c-0.4,0-0.7-0.1-1-0.4c-0.9-1-2.1-1.5-3.7-1.5c-1,0-1.8,0.2-2.4,0.6
				c-0.6,0.4-0.9,0.9-0.9,1.5c0,0.7,0.3,1.2,0.9,1.6c0.6,0.4,1.6,0.7,3,0.9c2,0.3,3.4,0.9,4.2,1.6s1.3,1.7,1.3,2.8
				c0,0.8-0.3,1.6-0.8,2.2c-0.5,0.7-1.2,1.2-2.1,1.5c-0.9,0.4-1.9,0.5-3,0.5S182.8,168,181.8,167.6z"/>
			<path class="st0" d="M204.9,153.9c1.2,0.7,2.1,1.6,2.7,2.8c0.7,1.2,1,2.5,1,3.9v6.4c0,0.3-0.1,0.5-0.3,0.7
				c-0.2,0.2-0.5,0.3-0.8,0.3s-0.6-0.1-0.8-0.3c-0.2-0.2-0.3-0.4-0.3-0.8v-1.6c-0.6,0.9-1.5,1.6-2.4,2.1c-1,0.5-2.1,0.8-3.3,0.8
				c-1.4,0-2.6-0.3-3.8-1c-1.1-0.7-2-1.6-2.7-2.7s-1-2.5-1-3.9s0.3-2.7,1-3.9c0.7-1.2,1.6-2.1,2.7-2.8c1.2-0.7,2.5-1,3.9-1
				S203.7,153.3,204.9,153.9z M203.8,165.5c0.8-0.5,1.5-1.2,2-2s0.7-1.8,0.7-2.9c0-1.1-0.2-2.1-0.7-2.9c-0.5-0.9-1.1-1.6-2-2.1
				c-0.8-0.5-1.8-0.8-2.8-0.8c-1,0-2,0.3-2.8,0.8c-0.8,0.5-1.5,1.2-2,2.1c-0.5,0.9-0.7,1.8-0.7,2.9c0,1.1,0.2,2.1,0.7,2.9
				c0.5,0.9,1.2,1.5,2,2c0.8,0.5,1.8,0.7,2.8,0.7C202.1,166.3,203,166,203.8,165.5z"/>
			<path class="st0" d="M212.9,166.7c-0.7-0.9-1.1-2-1.1-3.4v-15.6c0-0.3,0.1-0.6,0.3-0.8c0.2-0.2,0.4-0.3,0.7-0.3
				c0.3,0,0.6,0.1,0.8,0.3c0.2,0.2,0.3,0.4,0.3,0.8v15.6c0,0.8,0.2,1.4,0.5,1.9s0.7,0.7,1.2,0.7h0.7c0.3,0,0.5,0.1,0.7,0.3
				c0.2,0.2,0.2,0.4,0.2,0.8c0,0.3-0.1,0.6-0.3,0.8c-0.2,0.2-0.5,0.3-0.9,0.3h-0.4C214.5,168.1,213.6,167.6,212.9,166.7z"/>
			<path class="st0" d="M233,153.4c0.2,0.2,0.3,0.4,0.3,0.8V167c0,0.3-0.1,0.6-0.3,0.8c-0.2,0.2-0.5,0.3-0.8,0.3s-0.6-0.1-0.8-0.3
				c-0.2-0.2-0.3-0.5-0.3-0.8v-0.9c-0.6,0.7-1.3,1.2-2.2,1.6c-0.9,0.4-1.8,0.6-2.8,0.6c-1.3,0-2.5-0.3-3.5-0.8
				c-1-0.5-1.8-1.3-2.4-2.4c-0.6-1.1-0.9-2.3-0.9-3.8v-7.1c0-0.3,0.1-0.5,0.3-0.7c0.2-0.2,0.4-0.3,0.7-0.3c0.3,0,0.6,0.1,0.8,0.3
				c0.2,0.2,0.3,0.4,0.3,0.7v7.1c0,1.6,0.5,2.9,1.4,3.7c0.9,0.8,2.1,1.3,3.6,1.3c0.9,0,1.7-0.2,2.4-0.5c0.7-0.3,1.3-0.8,1.7-1.4
				c0.4-0.6,0.6-1.3,0.6-2v-8.1c0-0.3,0.1-0.6,0.3-0.8c0.2-0.2,0.4-0.3,0.8-0.3S232.8,153.2,233,153.4z"/>
			<path class="st0" d="M252.4,154.1v6.4c0,1.4-0.3,2.7-1,3.9c-0.7,1.2-1.6,2.1-2.7,2.8c-1.2,0.7-2.5,1-3.9,1s-2.7-0.3-3.9-1
				c-1.2-0.7-2.1-1.6-2.7-2.8c-0.7-1.2-1-2.5-1-3.9s0.3-2.7,1-3.9c0.6-1.2,1.5-2.1,2.7-2.7c1.1-0.7,2.4-1,3.8-1
				c1.2,0,2.3,0.3,3.3,0.8c1,0.5,1.8,1.2,2.4,2.1v-8c0-0.3,0.1-0.6,0.3-0.8c0.2-0.2,0.5-0.3,0.8-0.3s0.6,0.1,0.8,0.3
				c0.2,0.2,0.3,0.5,0.3,0.8v6.1C252.4,153.9,252.4,154,252.4,154.1z M247.6,165.5c0.8-0.5,1.5-1.2,2-2.1s0.7-1.8,0.7-2.9
				c0-0.3,0-0.5,0-0.7c0,0,0-0.1,0-0.1c-0.2-1.4-0.8-2.6-1.8-3.5c-1-0.9-2.2-1.4-3.7-1.4c-1,0-2,0.2-2.8,0.7c-0.8,0.5-1.5,1.2-2,2
				c-0.5,0.9-0.7,1.8-0.7,2.9c0,1.1,0.2,2.1,0.7,2.9c0.5,0.9,1.2,1.6,2,2.1s1.8,0.8,2.8,0.8C245.8,166.3,246.7,166,247.6,165.5z"/>
			<path class="st0" d="M267.6,153.9c1.2,0.7,2.1,1.6,2.7,2.8c0.7,1.2,1,2.5,1,3.9v6.4c0,0.3-0.1,0.5-0.3,0.7
				c-0.2,0.2-0.5,0.3-0.8,0.3s-0.6-0.1-0.8-0.3s-0.3-0.4-0.3-0.8v-1.6c-0.6,0.9-1.5,1.6-2.4,2.1c-1,0.5-2.1,0.8-3.3,0.8
				c-1.4,0-2.6-0.3-3.8-1s-2-1.6-2.7-2.7c-0.6-1.2-1-2.5-1-3.9s0.3-2.7,1-3.9c0.7-1.2,1.6-2.1,2.7-2.8s2.5-1,3.9-1
				C265.2,152.9,266.5,153.3,267.6,153.9z M266.6,165.5c0.8-0.5,1.5-1.2,2-2c0.5-0.9,0.7-1.8,0.7-2.9c0-1.1-0.2-2.1-0.7-2.9
				c-0.5-0.9-1.1-1.6-2-2.1c-0.8-0.5-1.8-0.8-2.8-0.8c-1,0-2,0.3-2.8,0.8c-0.9,0.5-1.5,1.2-2,2.1c-0.5,0.9-0.7,1.8-0.7,2.9
				c0,1.1,0.2,2.1,0.7,2.9c0.5,0.9,1.2,1.5,2,2c0.8,0.5,1.8,0.7,2.8,0.7C264.8,166.3,265.7,166,266.6,165.5z"/>
			<path class="st0" d="M286.7,153.9c1.1,0.7,2,1.6,2.7,2.7c0.6,1.2,1,2.5,1,3.9s-0.3,2.7-1,3.9c-0.7,1.2-1.6,2.1-2.7,2.8
				c-1.2,0.7-2.5,1-3.9,1c-1.4,0-2.7-0.3-3.9-1c-1.2-0.7-2.1-1.6-2.7-2.8c-0.7-1.2-1-2.5-1-3.9v-6.4c0-0.1,0-0.2,0-0.2v-6.1
				c0-0.3,0.1-0.6,0.3-0.8c0.2-0.2,0.4-0.3,0.8-0.3s0.6,0.1,0.8,0.3s0.3,0.5,0.3,0.8v8c0.6-0.9,1.5-1.6,2.4-2.1
				c1-0.5,2.1-0.8,3.3-0.8C284.3,152.9,285.6,153.3,286.7,153.9z M285.6,165.5c0.9-0.5,1.5-1.2,2-2.1s0.7-1.8,0.7-2.9
				c0-1.1-0.2-2.1-0.7-2.9c-0.5-0.9-1.2-1.5-2-2c-0.8-0.5-1.8-0.7-2.8-0.7c-1.4,0-2.7,0.5-3.7,1.4c-1,0.9-1.6,2.1-1.8,3.5
				c0,0.1,0,0.1,0,0.1c0,0.1,0,0.4,0,0.7c0,1.1,0.2,2.1,0.7,2.9c0.5,0.9,1.1,1.6,2,2.1c0.8,0.5,1.8,0.8,2.8,0.8
				C283.8,166.3,284.7,166,285.6,165.5z"/>
			<path class="st0" d="M294.6,166.7c-0.7-0.9-1.1-2-1.1-3.4v-15.6c0-0.3,0.1-0.6,0.3-0.8c0.2-0.2,0.4-0.3,0.7-0.3
				c0.3,0,0.6,0.1,0.8,0.3c0.2,0.2,0.3,0.4,0.3,0.8v15.6c0,0.8,0.2,1.4,0.5,1.9c0.3,0.5,0.7,0.7,1.2,0.7h0.7c0.3,0,0.5,0.1,0.7,0.3
				c0.2,0.2,0.2,0.4,0.2,0.8c0,0.3-0.1,0.6-0.3,0.8c-0.2,0.2-0.5,0.3-0.9,0.3h-0.4C296.2,168.1,295.3,167.6,294.6,166.7z"/>
			<path class="st0" d="M311,153.9c1,0.6,1.9,1.5,2.4,2.6c0.6,1.1,0.9,2.4,0.9,3.8c0,0.3-0.1,0.5-0.3,0.7c-0.2,0.2-0.4,0.3-0.7,0.3
				h-11.1c0.1,1.5,0.7,2.7,1.8,3.6c1,0.9,2.3,1.4,3.8,1.4c0.7,0,1.3-0.1,2-0.3c0.7-0.2,1.2-0.5,1.6-0.9c0.2-0.2,0.5-0.3,0.7-0.3
				c0.2,0,0.4,0.1,0.6,0.2c0.2,0.2,0.4,0.5,0.4,0.7c0,0.2-0.1,0.4-0.3,0.6c-0.6,0.5-1.4,0.9-2.3,1.3c-0.9,0.3-1.8,0.5-2.7,0.5
				c-1.5,0-2.8-0.3-3.9-1c-1.2-0.6-2.1-1.6-2.7-2.7c-0.6-1.2-1-2.5-1-3.9c0-1.5,0.3-2.8,0.9-4c0.6-1.2,1.5-2.1,2.6-2.7
				c1.1-0.6,2.3-1,3.7-1C308.7,152.9,309.9,153.2,311,153.9z M303.9,156.1c-0.9,0.9-1.5,2-1.7,3.4h10c-0.1-1.4-0.7-2.5-1.5-3.4
				c-0.9-0.9-2-1.3-3.4-1.3C306,154.8,304.8,155.2,303.9,156.1z"/>
		</g>
	</g>
</g>
</svg>
