<?xml version="1.0" encoding="utf-8"?>
<!-- Generator: Adobe Illustrator 24.0.0, SVG Export Plug-In . SVG Version: 6.00 Build 0)  -->
<svg version="1.1" id="Capa_1" xmlns="http://www.w3.org/2000/svg" xmlns:xlink="http://www.w3.org/1999/xlink" x="0px" y="0px"
	 viewBox="0 0 600 600" style="enable-background:new 0 0 600 600;" xml:space="preserve">
<style type="text/css">
	.st0{fill-rule:evenodd;clip-rule:evenodd;fill:#FFFFFF;}
</style>
<g id="WA_Logo">
	<g>
		<path class="st0" d="M505.4,93.7C450.8,39.1,378.3,9,301,9C141.8,9,12.2,138.6,12.1,297.9c0,50.9,13.3,100.6,38.6,144.4L9.7,592
			l153.1-40.2c42.2,23,89.7,35.1,138.1,35.2h0.1c0,0,0,0,0,0c159.2,0,288.8-129.6,288.9-288.9C589.9,220.9,559.9,148.3,505.4,93.7z
			 M301,538.2L301,538.2c-43.2,0-85.4-11.6-122.3-33.5l-8.8-5.2l-90.9,23.8l24.3-88.6l-5.7-9.1c-24-38.2-36.7-82.4-36.7-127.8
			C60.9,165.5,168.7,57.8,301.1,57.8c64.1,0,124.4,25,169.8,70.4c45.3,45.4,70.3,105.7,70.3,169.9
			C541.1,430.5,433.4,538.2,301,538.2z M432.7,358.4c-7.2-3.6-42.7-21.1-49.3-23.5c-6.6-2.4-11.4-3.6-16.2,3.6
			c-4.8,7.2-18.6,23.5-22.9,28.3c-4.2,4.8-8.4,5.4-15.6,1.8c-7.2-3.6-30.5-11.2-58-35.8c-21.5-19.1-35.9-42.8-40.2-50
			c-4.2-7.2-0.4-11.1,3.2-14.7c3.2-3.2,7.2-8.4,10.8-12.6c3.6-4.2,4.8-7.2,7.2-12c2.4-4.8,1.2-9-0.6-12.6
			c-1.8-3.6-16.2-39.1-22.3-53.6c-5.9-14.1-11.8-12.2-16.2-12.4c-4.2-0.2-9-0.3-13.8-0.3c-4.8,0-12.6,1.8-19.2,9
			c-6.6,7.2-25.3,24.7-25.3,60.2c0,35.5,25.9,69.9,29.5,74.7c3.6,4.8,50.9,77.7,123.3,109c17.2,7.4,30.7,11.9,41.2,15.2
			c17.3,5.5,33,4.7,45.5,2.9c13.9-2.1,42.7-17.5,48.7-34.3c6-16.9,6-31.3,4.2-34.3C444.8,363.8,439.9,362,432.7,358.4z"/>
	</g>
</g>
</svg>
